<?xml version="1.0" encoding="utf-8"?>
<!-- Generator: Adobe Illustrator 17.0.0, SVG Export Plug-In . SVG Version: 6.00 Build 0)  -->
<!DOCTYPE svg PUBLIC "-//W3C//DTD SVG 1.1//EN" "http://www.w3.org/Graphics/SVG/1.1/DTD/svg11.dtd">
<svg version="1.1" id="Your_Icon" xmlns="http://www.w3.org/2000/svg" xmlns:xlink="http://www.w3.org/1999/xlink" x="0px" y="0px"
	 width="74.076px" height="36.484px" viewBox="14.259 16.202 74.076 36.484" enable-background="new 14.259 16.202 74.076 36.484"
	 xml:space="preserve">
<path fill="#A3CDDD" d="M86.675,29.468c-3.675,0-5.996,1.035-7.875,2.254c0.235,0.17,0.465,0.341,0.691,0.51
	c0.836,0.627,1.55,1.15,2.324,1.587c1.45-0.714,2.964-1.034,4.86-1.034c0.916,0,1.659-0.743,1.659-1.659
	C88.333,30.213,87.59,29.468,86.675,29.468z"/>
<path fill="#A3CDDD" d="M20.778,35.07c-1.45,0.713-2.964,1.034-4.86,1.034c-0.914-0.001-1.659,0.743-1.659,1.658
	c0,0.915,0.744,1.659,1.659,1.659c3.676,0,5.996-1.036,7.876-2.255c-0.235-0.17-0.465-0.341-0.69-0.51
	C22.267,36.029,21.553,35.505,20.778,35.07z"/>
<path fill="#A3CDDD" d="M34.989,40.466c-1.181,0.097-2.211,0.073-3.316-0.05v5.765c0,0.915,0.744,1.659,1.658,1.659
	c0.915,0,1.659-0.744,1.659-1.659C34.989,46.181,34.989,40.466,34.989,40.466z"/>
<path fill="#A3CDDD" d="M52.68,40.467c-1.187,0.096-2.216,0.073-3.317-0.049v10.61c0,0.915,0.745,1.659,1.659,1.659
	c0.915,0,1.658-0.744,1.658-1.659L52.68,40.467L52.68,40.467z"/>
<path fill="#A3CDDD" d="M70.372,40.466c-1.175,0.097-2.207,0.073-3.317-0.048v5.764c0,0.915,0.745,1.659,1.658,1.659
	c0.916,0,1.659-0.744,1.659-1.659L70.372,40.466L70.372,40.466z"/>
<path fill="#A3CDDD" d="M86.675,36.103c-2.013,0-3.593-0.361-5.126-1.17c-0.944-0.499-1.791-1.119-2.722-1.816
	c-0.42-0.316-0.859-0.637-1.313-0.955c-1.447-1.013-3.287-2.085-6.036-2.502v3.357c0.941,0.188,1.788,0.49,2.635,0.936
	c0.942,0.498,1.793,1.118,2.725,1.817c0.419,0.316,0.857,0.635,1.311,0.953c1.999,1.401,4.417,2.696,8.527,2.696
	c0.916,0,1.659-0.744,1.659-1.659C88.335,36.847,87.59,36.103,86.675,36.103z"/>
<path fill="#A3CDDD" d="M64.127,33.82c0.587-0.288,1.19-0.51,1.822-0.675v-3.392c-2.079,0.397-3.608,1.175-4.839,1.971
	c0.234,0.17,0.463,0.34,0.687,0.508C62.635,32.86,63.35,33.385,64.127,33.82z"/>
<path fill="#A3CDDD" d="M67.055,34.847c1.028,0.17,2.235,0.198,3.317,0.076V22.708c0-0.915-0.743-1.659-1.659-1.659
	c-0.913,0-1.658,0.744-1.658,1.659L67.055,34.847L67.055,34.847z"/>
<path fill="#A3CDDD" d="M28.748,33.82c0.587-0.287,1.187-0.51,1.819-0.673v-3.393c-2.078,0.399-3.604,1.175-4.834,1.97
	c0.234,0.17,0.463,0.339,0.687,0.508C27.258,32.86,27.974,33.385,28.748,33.82z"/>
<path fill="#A3CDDD" d="M31.673,34.847c1.022,0.17,2.23,0.196,3.317,0.076V22.708c0-0.915-0.744-1.659-1.659-1.659
	c-0.914,0-1.658,0.744-1.658,1.659L31.673,34.847L31.673,34.847z"/>
<path fill="#A3CDDD" d="M56.157,35.07c-0.899,0.442-1.807,0.724-2.839,0.883c-1.497,0.233-3.194,0.197-4.621-0.106
	c-0.896-0.193-1.723-0.491-2.527-0.916c-0.944-0.496-1.79-1.116-2.721-1.813c-0.421-0.316-0.86-0.637-1.314-0.955
	c-1.448-1.013-3.289-2.087-6.04-2.502v3.357c0.942,0.187,1.791,0.489,2.639,0.936c0.947,0.499,1.795,1.118,2.727,1.817
	c0.419,0.315,0.856,0.635,1.31,0.951c1.45,1.016,3.311,2.109,6.122,2.519c1.424,0.207,2.651,0.247,4.283,0.067
	c2.679-0.293,4.54-1.201,5.999-2.142c-0.236-0.17-0.465-0.341-0.693-0.51C57.644,36.029,56.93,35.506,56.157,35.07z"/>
<path fill="#A3CDDD" d="M15.918,32.785c2.013,0,3.594,0.36,5.127,1.17c0.944,0.499,1.791,1.118,2.722,1.816
	c0.42,0.316,0.859,0.636,1.313,0.953c1.449,1.014,3.309,2.107,6.12,2.516c1.43,0.207,2.664,0.245,4.282,0.067
	c2.679-0.295,4.541-1.201,6.001-2.145c-0.233-0.17-0.462-0.34-0.687-0.507c-0.836-0.627-1.553-1.153-2.33-1.589
	c-0.898,0.443-1.807,0.725-2.84,0.885c-1.516,0.233-3.204,0.195-4.622-0.108c-0.897-0.19-1.721-0.488-2.522-0.911
	c-0.942-0.496-1.792-1.116-2.725-1.816c-0.419-0.316-0.858-0.636-1.311-0.953c-1.999-1.401-4.417-2.697-8.528-2.697
	c-0.913,0.001-1.658,0.746-1.658,1.659C14.259,32.042,15.004,32.785,15.918,32.785z"/>
<path fill="#A3CDDD" d="M46.437,33.818c0.585-0.287,1.188-0.51,1.821-0.675v-3.391c-2.08,0.399-3.607,1.174-4.837,1.97
	c0.235,0.17,0.467,0.341,0.693,0.51C44.947,32.86,45.662,33.383,46.437,33.818z"/>
<path fill="#A3CDDD" d="M49.364,34.847c1.028,0.17,2.239,0.198,3.317,0.076V17.861c0-0.915-0.743-1.659-1.658-1.659
	c-0.913,0-1.659,0.744-1.659,1.659L49.364,34.847L49.364,34.847z"/>
<path fill="#A3CDDD" d="M73.844,35.067c-0.897,0.443-1.806,0.725-2.835,0.885c-1.51,0.233-3.199,0.197-4.622-0.106
	c-0.896-0.19-1.723-0.489-2.526-0.913c-0.946-0.498-1.795-1.116-2.727-1.816c-0.419-0.316-0.857-0.635-1.31-0.953
	c-1.447-1.013-3.288-2.087-6.038-2.504v3.357c0.942,0.188,1.79,0.49,2.638,0.94c0.942,0.496,1.79,1.116,2.72,1.813
	c0.421,0.316,0.861,0.637,1.314,0.955c1.45,1.015,3.312,2.107,6.124,2.516c1.438,0.21,2.676,0.244,4.281,0.066
	c2.678-0.294,4.539-1.201,5.997-2.143c-0.233-0.17-0.463-0.34-0.688-0.509C75.336,36.029,74.619,35.504,73.844,35.067z"/>
</svg>
